<svg id="Group_339" data-name="Group 339" xmlns="http://www.w3.org/2000/svg" width="394.931" height="45.363" viewBox="0 0 394.931 45.363">
  <path id="Path_25" data-name="Path 25" d="M149.3,363.77V389.8c0,3.188-.118,6.39-1.505,9.164a10.032,10.032,0,0,1-9.445,5.785,12.661,12.661,0,0,1-7.1-2.051l3.01-5.18a6.148,6.148,0,0,0,4.206,1.446,3.989,3.989,0,0,0,4.029-2.715c.354-.9.664-2.346.664-6.449V363.77Z" transform="translate(-131.25 -361.069)" fill="#a13370"/>
  <path id="Path_26" data-name="Path 26" d="M176.241,369.555H160.229v10.182h15.525v5.785H160.229v12.662h16.012v5.785H154.09v-40.2h22.151Z" transform="translate(-120.385 -361.069)" fill="#a13370"/>
  <path id="Path_27" data-name="Path 27" d="M178.56,361.94v42.9H184.7V376.756L213.83,407.3V364.641h-6.139v27.847Z" transform="translate(-108.744 -361.94)" fill="#a13370"/>
  <path id="Path_28" data-name="Path 28" d="M213.07,361.94v42.9h6.139V376.756L248.34,407.3V364.641H242.2v27.847Z" transform="translate(-92.327 -361.94)" fill="#a13370"/>
  <path id="Path_29" data-name="Path 29" d="M257.5,386.614,244.32,363.77h6.98l9.267,16.085,9.267-16.085h6.98l-13.178,22.844v17.354H257.5Z" transform="translate(-77.461 -361.069)" fill="#a13370"/>
  <path id="Path_30" data-name="Path 30" d="M307.369,369.555h-13.96v10.182H306.9v5.785H293.409v18.446H287.27v-40.2h20.1Z" transform="translate(-57.029 -361.069)" fill="#a13370"/>
  <path id="Path_31" data-name="Path 31" d="M325.285,375.609l5.962,13.621h-12.16ZM305.54,404.725h6.626l4.4-9.7h17.148l4.206,9.7h6.626L325.521,362.18Z" transform="translate(-48.338 -361.826)" fill="#a13370"/>
  <rect id="Rectangle_74" data-name="Rectangle 74" width="6.139" height="40.184" transform="translate(307.288 2.701)" fill="#a13370"/>
  <path id="Path_32" data-name="Path 32" d="M360.394,382.216h1.918c1.682,0,8.544-.177,8.544-6.567,0-5.667-5.357-6.213-8.367-6.213h-2.11v12.78Zm1.018-18.446c4.87,0,8,.605,10.6,2.346a11.207,11.207,0,0,1,4.752,9.459,11.036,11.036,0,0,1-8.913,11.215l12.514,17.177h-7.408l-11.5-16.454h-1.077v16.454H354.24V363.785h7.172Z" transform="translate(-25.17 -361.069)" fill="#a13370"/>
  <path id="Path_33" data-name="Path 33" d="M390.028,386.614,376.85,363.77h6.98l9.267,16.085,9.268-16.085h6.98l-13.178,22.844v17.354h-6.139Z" transform="translate(-14.414 -361.069)" fill="#a13370"/>
</svg>
