<svg xmlns="http://www.w3.org/2000/svg" width="446.536" height="107.742" viewBox="0 0 446.536 107.742">
  <g id="Group_371" data-name="Group 371" transform="translate(-1553.464 -1705.837)">
    <path id="Path_11" data-name="Path 11" d="M963.138,408.57l20.409,20.439-20.483,20.5-3.247-3.261,14.728-14.7-61.655-.192v-4.708l61.537-.015-14.683-14.654Z" transform="translate(640.589 1364.073)" fill="#a13370"/>
    <g id="Group_330" data-name="Group 330" transform="translate(1553.464 1707.313)">
      <path id="Path_12" data-name="Path 12" d="M945.228,364.3v4.752H931.784v35.122h-5.46V369.052H912.88V364.3Z" transform="translate(-912.88 -364.3)" fill="#a13370"/>
      <path id="Path_13" data-name="Path 13" d="M938.98,364.3H957.1a17.79,17.79,0,0,1,7.379,1.328q5.512,2.546,5.519,9.415a9.776,9.776,0,0,1-5.622,9.518,8.15,8.15,0,0,1,3.512,2.494,8.983,8.983,0,0,1,1.313,5.017l.192,5.342a16.16,16.16,0,0,0,.384,3.394,3.338,3.338,0,0,0,1.741,2.45v.9h-6.626a4.843,4.843,0,0,1-.428-1.328,24.339,24.339,0,0,1-.266-3.143l-.325-6.656c-.118-2.612-1.062-4.353-2.819-5.239a11.415,11.415,0,0,0-4.722-.738H944.381v17.1h-5.4V364.3Zm17.546,18.269a9.913,9.913,0,0,0,5.844-1.52c1.431-1.018,2.155-2.833,2.155-5.49,0-2.848-1-4.781-3.01-5.814a9.584,9.584,0,0,0-4.309-.812H944.381v13.621h12.145Z" transform="translate(-900.464 -364.3)" fill="#a13370"/>
      <path id="Path_14" data-name="Path 14" d="M966.43,364.3h28.939v4.885H971.7v12.1h21.885V385.9H971.7v13.518h24.084v4.752H966.445V364.3Z" transform="translate(-887.406 -364.3)" fill="#a13370"/>
      <path id="Path_15" data-name="Path 15" d="M991.59,364.3h6.36l19.893,32.215V364.3h5.15v39.874h-6.065l-20.173-32.185v32.185H991.6V364.3Z" transform="translate(-875.436 -364.3)" fill="#a13370"/>
      <path id="Path_16" data-name="Path 16" d="M1019.3,364.3h15.938q8.124,0,12.588,5.829,3.984,5.268,3.984,13.488a27.078,27.078,0,0,1-2.361,11.481q-4.162,9.076-14.27,9.061H1019.3Zm14.875,35.255a14.222,14.222,0,0,0,4.412-.576,9.782,9.782,0,0,0,5.047-4.073,16.809,16.809,0,0,0,2.258-6.183,24.1,24.1,0,0,0,.4-4.176q0-7.415-2.878-11.511t-9.282-4.1h-9.371v30.621Z" transform="translate(-862.254 -364.3)" fill="#a13370"/>
    </g>
    <g id="Group_331" data-name="Group 331" transform="translate(1768.52 1705.837)">
      <path id="Path_17" data-name="Path 17" d="M1058.61,363.3h28.939v4.885h-23.671v12.1h21.885V384.9h-21.885v13.518h24.083v4.752h-29.337V363.3Z" transform="translate(-1058.61 -363.3)" fill="#a13370"/>
      <path id="Path_18" data-name="Path 18" d="M1083.93,363.3h15.938q8.124,0,12.588,5.829,3.985,5.268,3.984,13.488a27.077,27.077,0,0,1-2.361,11.481q-4.161,9.076-14.27,9.061H1083.93Zm14.875,35.255a14.221,14.221,0,0,0,4.412-.576,9.781,9.781,0,0,0,5.047-4.073,16.809,16.809,0,0,0,2.258-6.183,24.091,24.091,0,0,0,.4-4.176q0-7.415-2.878-11.511t-9.282-4.1h-9.371v30.621Z" transform="translate(-1046.565 -363.3)" fill="#a13370"/>
      <path id="Path_19" data-name="Path 19" d="M1112.14,363.3h5.46v39.874h-5.46Z" transform="translate(-1033.145 -363.3)" fill="#a13370"/>
      <path id="Path_20" data-name="Path 20" d="M1152.228,363.3v4.752h-13.444v35.122h-5.46V368.052H1119.88V363.3Z" transform="translate(-1029.463 -363.3)" fill="#a13370"/>
    </g>
    <g id="Group_337" data-name="Group 337" transform="translate(1917.197 1705.837)">
      <g id="Group_332" data-name="Group 332" transform="translate(0 0)">
        <path id="Path_21" data-name="Path 21" d="M1166.488,363.3h4.707l7.054,19.937h-4.516l-1.313-4.1h-7.349l-1.358,4.1h-4.353Zm-.266,12.4h5.106l-2.523-7.851Z" transform="translate(-1159.36 -363.3)" fill="#a13370"/>
      </g>
      <g id="Group_333" data-name="Group 333" transform="translate(18.521)">
        <path id="Path_22" data-name="Path 22" d="M1176.322,363.3l2.627,11.422.575,3.173.576-3.114,2.258-11.481h4.4l2.376,11.422.6,3.173.62-3.055,2.656-11.54h4.235l-5.608,19.937h-3.984l-2.405-11.658-.708-3.852-.708,3.852-2.406,11.658h-3.866L1171.91,363.3h4.412Z" transform="translate(-1171.91 -363.3)" fill="#a13370"/>
      </g>
      <g id="Group_336" data-name="Group 336" transform="translate(53.377 0)">
        <g id="Group_334" data-name="Group 334">
          <path id="Path_23" data-name="Path 23" d="M1196.445,379.341a11.051,11.051,0,0,1,3.94-4.206,28.269,28.269,0,0,0,3.483-2.76,4.1,4.1,0,0,0,1.225-2.848,3.2,3.2,0,0,0-.693-2.1,2.83,2.83,0,0,0-4.412.487,6.493,6.493,0,0,0-.443,2.435h-3.792a9.512,9.512,0,0,1,.915-4.088c1.048-1.977,2.892-2.966,5.549-2.966a7.039,7.039,0,0,1,5.017,1.741,6.037,6.037,0,0,1,1.859,4.619,6.252,6.252,0,0,1-1.313,3.911,13.222,13.222,0,0,1-2.833,2.538l-1.564,1.107c-.974.694-1.653,1.2-2.007,1.505a4.6,4.6,0,0,0-.915,1.077h8.662v3.438H1195.53A9.118,9.118,0,0,1,1196.445,379.341Z" transform="translate(-1195.53 -363.3)" fill="#a13370"/>
        </g>
        <g id="Group_335" data-name="Group 335" transform="translate(15.834)">
          <path id="Path_24" data-name="Path 24" d="M1207.175,379.341a11.049,11.049,0,0,1,3.94-4.206,28.279,28.279,0,0,0,3.483-2.76,4.1,4.1,0,0,0,1.225-2.848,3.2,3.2,0,0,0-.694-2.1,2.83,2.83,0,0,0-4.412.487,6.492,6.492,0,0,0-.443,2.435h-3.792a9.514,9.514,0,0,1,.915-4.088c1.048-1.977,2.893-2.966,5.549-2.966a7.04,7.04,0,0,1,5.018,1.741,6.037,6.037,0,0,1,1.859,4.619,6.252,6.252,0,0,1-1.313,3.911,13.217,13.217,0,0,1-2.833,2.538l-1.564,1.107c-.974.694-1.653,1.2-2.007,1.505a4.6,4.6,0,0,0-.915,1.077h8.662v3.438H1206.26A9.117,9.117,0,0,1,1207.175,379.341Z" transform="translate(-1206.26 -363.3)" fill="#a13370"/>
        </g>
      </g>
    </g>
  </g>
</svg>
